<svg xmlns="http://www.w3.org/2000/svg" xmlns:xlink="http://www.w3.org/1999/xlink" viewBox="0 0 1484 1050">  <style>    svg { font : caption; }      .idvc2_chart_axis { fill: none; stroke: gray; stroke-width: 1; vector-effect: non-scaling-stroke; shape-rendering: crispEdges; }      .idvc2_chart_axis_text { fill: #333; font-size: 95%; stroke: none; stroke-width: 1; vector-effect: non-scaling-stroke; }      .idvc2_chart_roofline_text { fill: gray; font-size: 90%; }      .idvc2_chart_roofline_text.selected { fill: #000; }      .idvc2_chart_roofline_text.hidden { fill: none; }      .idvc2_chart_roofline_explanation { fill: none; }      .idvc2_chart_roofline_center_marker { stroke: #000; stroke-width: 1 }      .roofline_child_line { stroke: none; fill: none; }      .roofline_parent_line { stroke: none; fill: none; }      .roofline_child_arrow { stroke: none; fill: none; }      .roofline_parent_arrow { stroke: none; fill: none; }      .roofline_loop { stroke: #000; stroke-width: 1; vector-effect: non-scaling-stroke; shape-rendering: geometricPrecision; fill: lightgray; }      .roofline_loop.no_loop_position { stroke: darkgray; fill: #eee; }      .roofline_loop.loop_inactive_result { opacity: 0.4; }      .idvc2_roofline_line { stroke: #999; stroke-dasharray: 4,4; fill: none; stroke-width: 1; vector-effect: non-scaling-stroke; shape-rendering: crispEdges; }      .idvc2_roofline_grid_line { stroke: #ddd; fill: none; stroke-width: 1; vector-effect: non-scaling-stroke; shape-rendering: crispEdges; }      .idvc2_roofline_line.selected { stroke: #000; shape-rendering: auto; stroke-dasharray: none; }      .idvc2_roofline_line_hotarea { stroke: none; fill: none; }      .roofline_roofs_cross { stroke: none; fill: none; }      .roofline_coord_line { stroke: none; fill: none; stroke-width: 1; vector-effect: non-scaling-stroke; shape-rendering: crispEdges; }      .roofline_coord_line.selected { stroke: gray; stroke-dasharray: none !important; }      .roofline_expander { stroke: none; fill: none; }      .roofline_expander_vert_line { stroke: none; fill: none; }      .roofline_expander_horz_line { stroke: none; fill: none; }      .idvc2_roofline_roof_crossing { stroke: none; fill: none; }      .idvc2_roofline_roof_crossing_line { stroke: none; fill: none; }      .idvc2_roofline_roof_crossing_label { stroke: none; fill: none; }      .idvc2_roofline_loops_matching_line { stroke: black; stroke-dasharray: 4,4; fill: none; vector-effect: non-scaling-stroke; shape-rendering: crispEdges; }      .idvc2_roofline_loops_matching_arrow { stroke: #000; fill: black; vector-effect: non-scaling-stroke; shape-rendering: geometricPrecision; }      .idvc2_roofline_loops_matching_label { font-size: 100%; }      .idvc2_roofline_total_value_tick_active { stroke: none; fill: none; }      .idvc2_roofline_total_value_tick { stroke: none; fill: none; }      .stairs_delta_line {stroke-width: 2;vector-effect: non-scaling-stroke;shape-rendering: geometricPrecision;}      .stairs_connection_line {stroke: black;stroke-width: 1;stroke-dasharray: 2,2;vector-effect: non-scaling-stroke;shape-rendering: geometricPrecision;}      .stairs_delta_ends {stroke-width: 3;vector-effect: non-scaling-stroke;shape-rendering: geometricPrecision;}      .dumbbell_line {stroke: #2D3741;stroke-width: 1.5;fill: none;vector-effect: non-scaling-stroke;shape-rendering: geometricPrecision;}      .zone_text_root {position: relative; overflow: visible;}       .zone_text_container {position: absolute; left: 0; bottom: 0; right: 0; text-align: center; overflow-wrap: break-word; word-wrap: break-word; hyphens: auto; color: rgb(160, 0, 0); background: transparent; opacity: 0.6;}      .zone_text_caption {min-width: 0; pointer-events: none;}      .zone_text_explanation {font-size: 800vertical-align: super;}      .idvc2_hidden { stroke: none !important; fill: none !important; }  </style>  <g>    <svg id="vert_axis" viewBox="0 0 70 1022" width="70" height="1022">      <line x1="69.45629119873047" y1="0" x2="69.45629119873047" y2="1022.0101318359375" class="idvc2_chart_axis"></line><line x1="63.95629119873047" y1="885" x2="69.95629119873047" y2="885" class="idvc2_chart_axis"></line><line x1="63.95629119873047" y1="885" x2="69.95629119873047" y2="885" class="idvc2_chart_axis_hot"></line><text x="59.95629119873047" y="885" class="idvc2_chart_axis_text" style="text-anchor: end;dominant-baseline: middle">1</text><line x1="63.95629119873047" y1="633" x2="69.95629119873047" y2="633" class="idvc2_chart_axis"></line><line x1="63.95629119873047" y1="633" x2="69.95629119873047" y2="633" class="idvc2_chart_axis_hot"></line><text x="59.95629119873047" y="633" class="idvc2_chart_axis_text" style="text-anchor: end;dominant-baseline: middle">10</text><line x1="63.95629119873047" y1="380" x2="69.95629119873047" y2="380" class="idvc2_chart_axis"></line><line x1="63.95629119873047" y1="380" x2="69.95629119873047" y2="380" class="idvc2_chart_axis_hot"></line><text x="59.95629119873047" y="380" class="idvc2_chart_axis_text" style="text-anchor: end;dominant-baseline: middle">100</text><line x1="63.95629119873047" y1="128" x2="69.95629119873047" y2="128" class="idvc2_chart_axis"></line><line x1="63.95629119873047" y1="128" x2="69.95629119873047" y2="128" class="idvc2_chart_axis_hot"></line><text x="59.95629119873047" y="128" class="idvc2_chart_axis_text" style="text-anchor: end;dominant-baseline: middle">1000</text><defs id="SVG_1_TextBackgroundDefs"><filter id="SVG_1_TextBackground" x="0" y="0" width="1" height="1"><feFlood flood-color="white"></feFlood><feComposite in="SourceGraphic"></feComposite></filter></defs><defs><marker id="SVG_1_TotalValue" markerWidth="6" markerHeight="10" refX="1" refY="5" orient="auto" markerUnits="userSpaceOnUse"><path d="M 0 0 L 0 10 L 6 5 L 0 0" class="idvc2_roofline_total_value_tick"></path></marker><marker id="SVG_1_TotalValueActive" markerWidth="6" markerHeight="10" refX="1" refY="5" orient="auto" markerUnits="userSpaceOnUse"><path d="M 0 0 L 0 10 L 6 5 L 0 0" class="idvc2_roofline_total_value_tick_active"></path></marker></defs><line x1="63.95629119873047" y1="475" x2="69.95629119873047" y2="475" class="idvc2_chart_axis idvc2_active" style="stroke: transparent; stroke-width:10; marker-start:url(#SVG_1_TotalValue)" ></line><line x1="63.95629119873047" y1="475" x2="69.95629119873047" y2="475" class="idvc2_chart_axis_hot"></line><text x="59.95629119873047" y="475" class="" style="text-anchor: end;dominant-baseline: middle" fill="none">42.26</text>    </svg>  </g>  <g transform="translate(70, 1022)">    <svg id="horz_axis" viewBox="0 0 1414 28" width="1414" height="28">      <line x1="0" y1="0.5" x2="1413.6343994140625" y2="0.5" class="idvc2_chart_axis"></line><line x1="1" y1="6" x2="1" y2="0" class="idvc2_chart_axis"></line><line x1="1" y1="6" x2="1" y2="0" class="idvc2_chart_axis_hot"></line><text x="12.9375" y="10" class="idvc2_chart_axis_text" style="text-anchor: middle; dominant-baseline:text-before-edge;"> 0.01 </text><line x1="233" y1="6" x2="233" y2="0" class="idvc2_chart_axis"></line><line x1="233" y1="6" x2="233" y2="0" class="idvc2_chart_axis_hot"></line><text x="233" y="10" class="idvc2_chart_axis_text" style="text-anchor: middle; dominant-baseline:text-before-edge;"> 0.04 </text><line x1="326" y1="6" x2="326" y2="0" class="idvc2_chart_axis"></line><line x1="326" y1="6" x2="326" y2="0" class="idvc2_chart_axis_hot"></line><text x="326" y="10" class="idvc2_chart_axis_text" style="text-anchor: middle; dominant-baseline:text-before-edge;"> 0.07 </text><line x1="385" y1="6" x2="385" y2="0" class="idvc2_chart_axis"></line><line x1="385" y1="6" x2="385" y2="0" class="idvc2_chart_axis_hot"></line><text x="385" y="10" class="idvc2_chart_axis_text" style="text-anchor: middle; dominant-baseline:text-before-edge;"> 0.1 </text><line x1="617" y1="6" x2="617" y2="0" class="idvc2_chart_axis"></line><line x1="617" y1="6" x2="617" y2="0" class="idvc2_chart_axis_hot"></line><text x="617" y="10" class="idvc2_chart_axis_text" style="text-anchor: middle; dominant-baseline:text-before-edge;"> 0.4 </text><line x1="710" y1="6" x2="710" y2="0" class="idvc2_chart_axis"></line><line x1="710" y1="6" x2="710" y2="0" class="idvc2_chart_axis_hot"></line><text x="710" y="10" class="idvc2_chart_axis_text" style="text-anchor: middle; dominant-baseline:text-before-edge;"> 0.7 </text><line x1="769" y1="6" x2="769" y2="0" class="idvc2_chart_axis"></line><line x1="769" y1="6" x2="769" y2="0" class="idvc2_chart_axis_hot"></line><text x="769" y="10" class="idvc2_chart_axis_text" style="text-anchor: middle; dominant-baseline:text-before-edge;"> 1 </text><line x1="1000" y1="6" x2="1000" y2="0" class="idvc2_chart_axis"></line><line x1="1000" y1="6" x2="1000" y2="0" class="idvc2_chart_axis_hot"></line><text x="1000" y="10" class="idvc2_chart_axis_text" style="text-anchor: middle; dominant-baseline:text-before-edge;"> 4 </text><line x1="1094" y1="6" x2="1094" y2="0" class="idvc2_chart_axis"></line><line x1="1094" y1="6" x2="1094" y2="0" class="idvc2_chart_axis_hot"></line><text x="1094" y="10" class="idvc2_chart_axis_text" style="text-anchor: middle; dominant-baseline:text-before-edge;"> 7 </text><line x1="1153" y1="6" x2="1153" y2="0" class="idvc2_chart_axis"></line><line x1="1153" y1="6" x2="1153" y2="0" class="idvc2_chart_axis_hot"></line><text x="1153" y="10" class="idvc2_chart_axis_text" style="text-anchor: middle; dominant-baseline:text-before-edge;"> 10 </text><line x1="1384" y1="6" x2="1384" y2="0" class="idvc2_chart_axis"></line><line x1="1384" y1="6" x2="1384" y2="0" class="idvc2_chart_axis_hot"></line><text x="1384" y="10" class="idvc2_chart_axis_text" style="text-anchor: middle; dominant-baseline:text-before-edge;"> 40 </text><defs id="SVG_2_TextBackgroundDefs"><filter id="SVG_2_TextBackground" x="0" y="0" width="1" height="1"><feFlood flood-color="white"></feFlood><feComposite in="SourceGraphic"></feComposite></filter></defs><defs><marker id="SVG_2_TotalValue" markerWidth="6" markerHeight="10" refX="1" refY="5" orient="auto" markerUnits="userSpaceOnUse"><path d="M 0 0 L 0 10 L 6 5 L 0 0" class="idvc2_roofline_total_value_tick"></path></marker><marker id="SVG_2_TotalValueActive" markerWidth="6" markerHeight="10" refX="1" refY="5" orient="auto" markerUnits="userSpaceOnUse"><path d="M 0 0 L 0 10 L 6 5 L 0 0" class="idvc2_roofline_total_value_tick_active"></path></marker></defs><line x1="355" y1="6" x2="355" y2="0" class="idvc2_chart_axis idvc2_active" style="stroke: transparent; stroke-width:10; marker-start:url(#SVG_2_TotalValue)" ></line><line x1="355" y1="6" x2="355" y2="0" class="idvc2_chart_axis_hot"></line><text x="355" y="10" class="" style="text-anchor: middle; dominant-baseline:text-before-edge;" fill="none"> 0.083 </text>    </svg>  </g>  <g transform="translate(70, 0)">    <svg id="roofline_content" viewBox="0 0 1414 1022" width="1414" height="1022">      <g id="SVG_0_BackgroundLayer"><polygon fill="rgb(160, 30, 30)" style="opacity:0.14" points="1180,1022 1180,161 1414,161 1414,1022"></polygon><polygon fill="rgb(200, 40, 40)" style="opacity:0.1" points="118,1022 118,358 418,161 1180,161 1180,1022"></polygon><polygon fill="rgb(240, 50, 50)" style="opacity:0.06" points="0,1022 0,436 118,358 118,1022"></polygon><line class="idvc2_roofline_grid_line" x1="1384" y1="1022" x2="1384" y2="0"></line><line class="idvc2_roofline_grid_line" x1="1153" y1="1022" x2="1153" y2="0"></line><line class="idvc2_roofline_grid_line" x1="1094" y1="1022" x2="1094" y2="0"></line><line class="idvc2_roofline_grid_line" x1="1000" y1="1022" x2="1000" y2="0"></line><line class="idvc2_roofline_grid_line" x1="769" y1="1022" x2="769" y2="0"></line><line class="idvc2_roofline_grid_line" x1="710" y1="1022" x2="710" y2="0"></line><line class="idvc2_roofline_grid_line" x1="617" y1="1022" x2="617" y2="0"></line><line class="idvc2_roofline_grid_line" x1="385" y1="1022" x2="385" y2="0"></line><line class="idvc2_roofline_total_line" x1="355" y1="1022" x2="355" y2="0"></line><line class="idvc2_roofline_grid_line" x1="326" y1="1022" x2="326" y2="0"></line><line class="idvc2_roofline_grid_line" x1="233" y1="1022" x2="233" y2="0"></line><line class="idvc2_roofline_grid_line" x1="1" y1="1022" x2="1" y2="0"></line><line class="idvc2_roofline_grid_line" x1="0" y1="885" x2="1414" y2="885"></line><line class="idvc2_roofline_grid_line" x1="0" y1="633" x2="1414" y2="633"></line><line class="idvc2_roofline_total_line" x1="0" y1="475" x2="1414" y2="475"></line><line class="idvc2_roofline_grid_line" x1="0" y1="380" x2="1414" y2="380"></line><line class="idvc2_roofline_grid_line" x1="0" y1="128" x2="1414" y2="128"></line><line class="idvc2_roofline_line_hotarea idvc2_active" x1="0" y1="436" x2="533" y2="85"></line><line class="idvc2_roofline_line_hotarea idvc2_active" x1="0" y1="528" x2="673" y2="85"></line><line class="idvc2_roofline_line_hotarea idvc2_active" x1="0" y1="625" x2="821" y2="85"></line><line class="idvc2_roofline_line_hotarea idvc2_active" x1="0" y1="937" x2="1296" y2="85"></line><line class="idvc2_roofline_line_hotarea idvc2_active" x1="533" y1="85" x2="1414" y2="85"></line><line class="idvc2_roofline_line_hotarea idvc2_active" x1="419" y1="160" x2="1414" y2="160"></line><line class="idvc2_roofline_line_hotarea idvc2_active" x1="418" y1="161" x2="1414" y2="161"></line><line class="idvc2_roofline_line_hotarea idvc2_active" x1="303" y1="236" x2="1414" y2="236"></line><line class="idvc2_roofline_line_hotarea idvc2_active" x1="118" y1="358" x2="1414" y2="358"></line><foreignObject class="zone_text_root idvc2_active" x="4.01052" y="985.95792" width="109.97896" height="20"><body xmlns="http://www.w3.org/1999/xhtml" class="zone_text_container"><div class="zone_text_container"><span class="zone_text_caption">Memory bound</span></div></body></foreignObject><foreignObject class="zone_text_root idvc2_active" x="122.01052" y="985.95792" width="1053.97896" height="20"><body xmlns="http://www.w3.org/1999/xhtml" class="zone_text_container"><div class="zone_text_container"><span class="zone_text_caption">Bound by compute and memory roofs</span></div></body></foreignObject><foreignObject class="zone_text_root idvc2_active" x="1184.01052" y="985.95792" width="225.97896" height="20"><body xmlns="http://www.w3.org/1999/xhtml" class="zone_text_container"><div class="zone_text_container"><span class="zone_text_caption">Compute bound</span></div></body></foreignObject></g><g id="SVG_0_LoopsLayer"><circle class="roofline_loop idvc2_active" cx="355" cy="507" r="4" style="fill:green !important" ></circle><circle class="roofline_loop idvc2_active" cx="355" cy="703" r="4" style="fill:green !important" ></circle><circle class="roofline_loop idvc2_active" cx="355" cy="643" r="4" style="fill:green !important" ></circle><circle class="roofline_loop idvc2_active idvc2_roofline_point_current idvc2_roofline_point_selected" cx="355" cy="473" r="8" style="fill:red !important" ></circle></g><g id="SVG_0_RoofsLayer"><line class="idvc2_roofline_line SPVectorAddPeak" x1="419" y1="160" x2="1414" y2="160"></line><rect x="114.99211" y="354.99211" width="6.0157799999999995" height="6.0157799999999995" class="roofline_roofs_cross idvc2_active"></rect><line x1="118" y1="361.00789" x2="118" y2="1022" class="roofline_coord_line"></line><rect x="254.99211" y="354.99211" width="6.0157799999999995" height="6.0157799999999995" class="roofline_roofs_cross idvc2_active"></rect><line x1="258" y1="361.00789" x2="258" y2="1022" class="roofline_coord_line"></line><rect x="402.99211" y="354.99211" width="6.0157799999999995" height="6.0157799999999995" class="roofline_roofs_cross idvc2_active"></rect><line x1="406" y1="361.00789" x2="406" y2="1022" class="roofline_coord_line"></line><rect x="876.99211" y="354.99211" width="6.0157799999999995" height="6.0157799999999995" class="roofline_roofs_cross idvc2_active"></rect><line x1="880" y1="361.00789" x2="880" y2="1022" class="roofline_coord_line"></line><rect x="299.99211" y="232.99211" width="6.0157799999999995" height="6.0157799999999995" class="roofline_roofs_cross idvc2_active"></rect><line x1="303" y1="239.00789" x2="303" y2="1022" class="roofline_coord_line"></line><rect x="439.99211" y="232.99211" width="6.0157799999999995" height="6.0157799999999995" class="roofline_roofs_cross idvc2_active"></rect><line x1="443" y1="239.00789" x2="443" y2="1022" class="roofline_coord_line"></line><rect x="587.99211" y="232.99211" width="6.0157799999999995" height="6.0157799999999995" class="roofline_roofs_cross idvc2_active"></rect><line x1="591" y1="239.00789" x2="591" y2="1022" class="roofline_coord_line"></line><rect x="1062.99211" y="232.99211" width="6.0157799999999995" height="6.0157799999999995" class="roofline_roofs_cross idvc2_active"></rect><line x1="1066" y1="239.00789" x2="1066" y2="1022" class="roofline_coord_line"></line><rect x="414.99211" y="157.99211" width="6.0157799999999995" height="6.0157799999999995" class="roofline_roofs_cross idvc2_active"></rect><line x1="418" y1="164.00789" x2="418" y2="1022" class="roofline_coord_line"></line><rect x="554.99211" y="157.99211" width="6.0157799999999995" height="6.0157799999999995" class="roofline_roofs_cross idvc2_active"></rect><line x1="558" y1="164.00789" x2="558" y2="1022" class="roofline_coord_line"></line><rect x="702.99211" y="157.99211" width="6.0157799999999995" height="6.0157799999999995" class="roofline_roofs_cross idvc2_active"></rect><line x1="706" y1="164.00789" x2="706" y2="1022" class="roofline_coord_line"></line><rect x="1176.99211" y="157.99211" width="6.0157799999999995" height="6.0157799999999995" class="roofline_roofs_cross idvc2_active"></rect><line x1="1180" y1="164.00789" x2="1180" y2="1022" class="roofline_coord_line"></line><rect x="415.99211" y="156.99211" width="6.0157799999999995" height="6.0157799999999995" class="roofline_roofs_cross idvc2_active"></rect><line x1="419" y1="163.00789" x2="419" y2="1022" class="roofline_coord_line"></line><rect x="555.99211" y="156.99211" width="6.0157799999999995" height="6.0157799999999995" class="roofline_roofs_cross idvc2_active"></rect><line x1="559" y1="163.00789" x2="559" y2="1022" class="roofline_coord_line"></line><rect x="703.99211" y="156.99211" width="6.0157799999999995" height="6.0157799999999995" class="roofline_roofs_cross idvc2_active"></rect><line x1="707" y1="163.00789" x2="707" y2="1022" class="roofline_coord_line"></line><rect x="1177.99211" y="156.99211" width="6.0157799999999995" height="6.0157799999999995" class="roofline_roofs_cross idvc2_active"></rect><line x1="1181" y1="163.00789" x2="1181" y2="1022" class="roofline_coord_line"></line><rect x="529.99211" y="81.99211" width="6.0157799999999995" height="6.0157799999999995" class="roofline_roofs_cross idvc2_active"></rect><line x1="533" y1="88.00789" x2="533" y2="1022" class="roofline_coord_line"></line><rect x="669.99211" y="81.99211" width="6.0157799999999995" height="6.0157799999999995" class="roofline_roofs_cross idvc2_active"></rect><line x1="673" y1="88.00789" x2="673" y2="1022" class="roofline_coord_line"></line><rect x="817.99211" y="81.99211" width="6.0157799999999995" height="6.0157799999999995" class="roofline_roofs_cross idvc2_active"></rect><line x1="821" y1="88.00789" x2="821" y2="1022" class="roofline_coord_line"></line><rect x="1292.99211" y="81.99211" width="6.0157799999999995" height="6.0157799999999995" class="roofline_roofs_cross idvc2_active"></rect><line x1="1296" y1="88.00789" x2="1296" y2="1022" class="roofline_coord_line"></line><line class="idvc2_roofline_line SPVectorFMAPeak" x1="533" y1="85" x2="1414" y2="85"></line><line class="idvc2_roofline_line L3Bandwidth" x1="0" y1="625" x2="821" y2="85" style=""></line><line class="idvc2_roofline_line ScalarAddPeak" x1="118" y1="358" x2="1414" y2="358"></line><line class="idvc2_roofline_line L2Bandwidth" x1="0" y1="528" x2="673" y2="85" style=""></line><line class="idvc2_roofline_line DPVectorFMAPeak selected" x1="418" y1="161" x2="1414" y2="161"></line><line class="idvc2_roofline_line L1Bandwidth" x1="0" y1="436" x2="533" y2="85" style=""></line><line class="idvc2_roofline_line selected" x1="0" y1="436" x2="418" y2="161" style=""></line><line class="idvc2_roofline_line DRAMBandwidth" x1="0" y1="937" x2="1296" y2="85" style=""></line><line class="idvc2_roofline_line selected" x1="0" y1="937" x2="1180" y2="161" style=""></line><line class="idvc2_roofline_line DPVectorAddPeak" x1="303" y1="236" x2="1414" y2="236"></line></g><g id="SVG_0_RoofsTextLayer"><text class="idvc2_chart_roofline_text" x="0" y="0" style="text-anchor: end; dominant-baseline:text-before-edge;" transform="matrix(1 0 0 1 1409.99 161)">SP Vector Add Peak: 744.04 GFLOPS</text><text class="idvc2_chart_roofline_text" x="0" y="0" style="text-anchor: end; dominant-baseline:text-after-edge;" transform="matrix(1 0 0 1 1409.99 84)">SP Vector FMA Peak: 1477.81 GFLOPS</text><text class="idvc2_chart_roofline_text" x="0" y="0" style="dominant-baseline:text-after-edge;" transform="matrix(0.835479 -0.549523 0.549523 0.835479 10.4807 616.91)">L3 Bandwidth: 1082.23 GB/sec</text><text class="idvc2_chart_roofline_text" x="0" y="0" style="text-anchor: end; dominant-baseline:text-after-edge;" transform="matrix(1 0 0 1 1409.99 357)">Scalar Add Peak: 122.4 GFLOPS</text><text class="idvc2_chart_roofline_text" x="0" y="0" style="dominant-baseline:text-after-edge;" transform="matrix(0.835282 -0.549822 0.549822 0.835282 10.4734 519.909)">L2 Bandwidth: 2628.29 GB/sec</text><text class="idvc2_chart_roofline_text selected" x="0" y="0" style="text-anchor: end; dominant-baseline:text-after-edge;" transform="matrix(1 0 0 1 1409.99 160)">DP Vector FMA Peak: 738.74 GFLOPS</text><text class="idvc2_chart_roofline_text selected" x="0" y="0" style="dominant-baseline:text-after-edge;" transform="matrix(0.835171 -0.549991 0.549991 0.835171 10.4722 427.906)">L1 Bandwidth: 6090.23 GB/sec</text><text class="idvc2_chart_roofline_text selected" x="0" y="0" style="dominant-baseline:text-after-edge;" transform="matrix(0.835604 -0.549332 0.549332 0.835604 10.4423 928.938)">DRAM Bandwidth: 62.83 GB/sec</text><text class="idvc2_chart_roofline_text" x="0" y="0" style="text-anchor: end; dominant-baseline:text-after-edge;" transform="matrix(1 0 0 1 1409.99 235)">DP Vector Add Peak: 372.46 GFLOPS</text></g><g id="SVG_0_ForegroundLayer"><line x1="335" y1="475" x2="375" y2="475" class="idvc2_chart_roofline_center_marker"></line><line x1="355" y1="455" x2="355" y2="495" class="idvc2_chart_roofline_center_marker"></line><use xlink:href="#SVG_0_expanderTemplate" class="roofline_expander idvc2_active" x="-118.269725" y="-105.51315"></use><text class="idvc2_roofline_roof_crossing_label" x="-100" y="-100" filter="url(#SVG_0_TextBackground)" style="text-anchor:end; dominant-baseline: middle;"><tspan class="idvc2_roofline_roof_crossing_label_value"></tspan><tspan class="idvc2_roofline_roof_crossing_label_measure"> GFLOPS </tspan><tspan class="idvc2_roofline_roof_crossing_label_gain_x">(</tspan><tspan class="idvc2_roofline_roof_crossing_label_gain"></tspan><tspan class="idvc2_roofline_roof_crossing_label_gain_x">x)</tspan></text><text class="idvc2_roofline_roof_crossing_label" x="-100" y="-100" filter="url(#SVG_0_TextBackground)" style="text-anchor:end; dominant-baseline: middle;"><tspan class="idvc2_roofline_roof_crossing_label_value"></tspan><tspan class="idvc2_roofline_roof_crossing_label_measure"> GFLOPS </tspan><tspan class="idvc2_roofline_roof_crossing_label_gain_x">(</tspan><tspan class="idvc2_roofline_roof_crossing_label_gain"></tspan><tspan class="idvc2_roofline_roof_crossing_label_gain_x">x)</tspan></text><use xlink:href="#SVG_0_crossingTemplate" class="idvc2_roofline_roof_crossing" x="-100" y="-100"></use><use xlink:href="#SVG_0_crossingTemplate" class="idvc2_roofline_roof_crossing" x="-100" y="-100"></use><line x1="-100" y1="0" x2="-100" y2="0" class="idvc2_roofline_roof_crossing_line"></line></g><rect x="0" y="0" width="0" height="0" class="idvc2_chart_selection"></rect><defs><filter id="SVG_0_TextBackground" x="0" y="0" width="1" height="1"><feFlood flood-color="white"></feFlood><feComposite in="SourceGraphic"></feComposite></filter></defs><defs id="SVG_0_line_arrows"><marker id="SVG_0_loops_matching_arrow" markerWidth="9.02367" markerHeight="9.02367" refX="9.02367" refY="5" orient="auto"><path d="M 1.00263 1.00263 L 1.00263 8.02104 L 8.02104 5 L 1.00263 1.00263" class="idvc2_roofline_loops_matching_arrow"></path></marker><marker id="SVG_0_ChildArrow" markerWidth="9.02367" markerHeight="9.02367" refX="9.02367" refY="5" orient="auto"><path d="M 1.00263 1.00263 L 1.00263 8.02104 L 8.02104 5 L 1.00263 1.00263" class="roofline_child_arrow"></path></marker><marker id="SVG_0_ParentArrow" markerWidth="9.02367" markerHeight="9.02367" refX="0" refY="5" orient="auto"><path d="M 1.00263 1.00263 L 1.00263 8.02104 L 8.02104 5 L 1.00263 1.00263" class="roofline_parent_arrow"></path></marker></defs><defs id="SVG_0_fill_patterns"><pattern id="SVG_0_loopFill-6-4-cl" patternContentUnits="objectBoundingBox" width="100%" height="100%"><circle cx=".5" cy=".5" r=".5" fill="white"></circle><circle cx=".5" cy=".5" r="0.3333333333333333" fill="green" stroke="black" stroke-width="0.05"></circle></pattern><pattern id="SVG_0_loopFill-8-4-cl" patternContentUnits="objectBoundingBox" width="100%" height="100%"><circle cx=".5" cy=".5" r=".5" fill="white"></circle><circle cx=".5" cy=".5" r="0.25" fill="green" stroke="black" stroke-width="0.05"></circle></pattern><pattern id="SVG_0_loopFill-8-6-cl" patternContentUnits="objectBoundingBox" width="100%" height="100%"><circle cx=".5" cy=".5" r=".5" fill="white"></circle><circle cx=".5" cy=".5" r="0.375" fill="yellow" stroke="black" stroke-width="0.05"></circle></pattern></defs><defs><g id="SVG_0_expanderTemplate"><rect x="0" y="0" width="11.026299999999999" height="11.026299999999999" class=""></rect><line x1="2.00526" y1="5.5131499999999996" x2="9.02104" y2="5.5131499999999996" class="roofline_expander_horz_line"></line><line x1="5.5131499999999996" y1="2.00526" x2="5.5131499999999996" y2="9.02104" class="roofline_expander_vert_line"></line></g></defs><defs><line id="SVG_0_crossingTemplate" x1="-4" y1="-4" x2="4" y2="4"></line></defs><text x="2" y="2" style="font-size: 90%; writing-mode: tb; dominant-baseline: text-after-edge">GFLOPS</text><text x="1410" y="1020" style="font-size: 90%; text-anchor: end; dominant-baseline: text-after-edge"><tspan>FLOP/Byte</tspan><tspan style="font-size: 90%;"> (Arithmetic Intensity)</tspan></text>    </svg>  </g>  </svg>