<svg xmlns="http://www.w3.org/2000/svg" xmlns:xlink="http://www.w3.org/1999/xlink" viewBox="0 0 1484 1050">  <style>    svg { font : caption; }      .idvc2_chart_axis { fill: none; stroke: gray; stroke-width: 1; vector-effect: non-scaling-stroke; shape-rendering: crispEdges; }      .idvc2_chart_axis_text { fill: #333; font-size: 95%; stroke: none; stroke-width: 1; vector-effect: non-scaling-stroke; }      .idvc2_chart_roofline_text { fill: gray; font-size: 90%; }      .idvc2_chart_roofline_text.selected { fill: #000; }      .idvc2_chart_roofline_text.hidden { fill: none; }      .idvc2_chart_roofline_explanation { fill: none; }      .idvc2_chart_roofline_center_marker { stroke: #000; stroke-width: 1 }      .roofline_child_line { stroke: none; fill: none; }      .roofline_parent_line { stroke: none; fill: none; }      .roofline_child_arrow { stroke: none; fill: none; }      .roofline_parent_arrow { stroke: none; fill: none; }      .roofline_loop { stroke: #000; stroke-width: 1; vector-effect: non-scaling-stroke; shape-rendering: geometricPrecision; fill: lightgray; }      .roofline_loop.no_loop_position { stroke: darkgray; fill: #eee; }      .roofline_loop.loop_inactive_result { opacity: 0.4; }      .idvc2_roofline_line { stroke: #999; stroke-dasharray: 4,4; fill: none; stroke-width: 1; vector-effect: non-scaling-stroke; shape-rendering: crispEdges; }      .idvc2_roofline_grid_line { stroke: #ddd; fill: none; stroke-width: 1; vector-effect: non-scaling-stroke; shape-rendering: crispEdges; }      .idvc2_roofline_line.selected { stroke: #000; shape-rendering: auto; stroke-dasharray: none; }      .idvc2_roofline_line_hotarea { stroke: none; fill: none; }      .roofline_roofs_cross { stroke: none; fill: none; }      .roofline_coord_line { stroke: none; fill: none; stroke-width: 1; vector-effect: non-scaling-stroke; shape-rendering: crispEdges; }      .roofline_coord_line.selected { stroke: gray; stroke-dasharray: none !important; }      .roofline_expander { stroke: none; fill: none; }      .roofline_expander_vert_line { stroke: none; fill: none; }      .roofline_expander_horz_line { stroke: none; fill: none; }      .idvc2_roofline_roof_crossing { stroke: none; fill: none; }      .idvc2_roofline_roof_crossing_line { stroke: none; fill: none; }      .idvc2_roofline_roof_crossing_label { stroke: none; fill: none; }      .idvc2_roofline_loops_matching_line { stroke: black; stroke-dasharray: 4,4; fill: none; vector-effect: non-scaling-stroke; shape-rendering: crispEdges; }      .idvc2_roofline_loops_matching_arrow { stroke: #000; fill: black; vector-effect: non-scaling-stroke; shape-rendering: geometricPrecision; }      .idvc2_roofline_loops_matching_label { font-size: 100%; }      .idvc2_roofline_total_value_tick_active { stroke: none; fill: none; }      .idvc2_roofline_total_value_tick { stroke: none; fill: none; }      .stairs_delta_line {stroke-width: 2;vector-effect: non-scaling-stroke;shape-rendering: geometricPrecision;}      .stairs_connection_line {stroke: black;stroke-width: 1;stroke-dasharray: 2,2;vector-effect: non-scaling-stroke;shape-rendering: geometricPrecision;}      .stairs_delta_ends {stroke-width: 3;vector-effect: non-scaling-stroke;shape-rendering: geometricPrecision;}      .dumbbell_line {stroke: #2D3741;stroke-width: 1.5;fill: none;vector-effect: non-scaling-stroke;shape-rendering: geometricPrecision;}      .zone_text_root {position: relative; overflow: visible;}       .zone_text_container {position: absolute; left: 0; bottom: 0; right: 0; text-align: center; overflow-wrap: break-word; word-wrap: break-word; hyphens: auto; color: rgb(160, 0, 0); background: transparent; opacity: 0.6;}      .zone_text_caption {min-width: 0; pointer-events: none;}      .zone_text_explanation {font-size: 800vertical-align: super;}      .idvc2_hidden { stroke: none !important; fill: none !important; }  </style>  <g>    <svg id="vert_axis" viewBox="0 0 70 1022" width="70" height="1022">      <line x1="69.45629119873047" y1="0" x2="69.45629119873047" y2="1022.0101318359375" class="idvc2_chart_axis"></line><line x1="63.95629119873047" y1="1006" x2="69.95629119873047" y2="1006" class="idvc2_chart_axis"></line><line x1="63.95629119873047" y1="1006" x2="69.95629119873047" y2="1006" class="idvc2_chart_axis_hot"></line><text x="59.95629119873047" y="1006" class="idvc2_chart_axis_text" style="text-anchor: end;dominant-baseline: middle">1.00e-9</text><line x1="63.95629119873047" y1="930" x2="69.95629119873047" y2="930" class="idvc2_chart_axis"></line><line x1="63.95629119873047" y1="930" x2="69.95629119873047" y2="930" class="idvc2_chart_axis_hot"></line><text x="59.95629119873047" y="930" class="idvc2_chart_axis_text" style="text-anchor: end;dominant-baseline: middle">1.00e-8</text><line x1="63.95629119873047" y1="855" x2="69.95629119873047" y2="855" class="idvc2_chart_axis"></line><line x1="63.95629119873047" y1="855" x2="69.95629119873047" y2="855" class="idvc2_chart_axis_hot"></line><text x="59.95629119873047" y="855" class="idvc2_chart_axis_text" style="text-anchor: end;dominant-baseline: middle">1.00e-7</text><line x1="63.95629119873047" y1="779" x2="69.95629119873047" y2="779" class="idvc2_chart_axis"></line><line x1="63.95629119873047" y1="779" x2="69.95629119873047" y2="779" class="idvc2_chart_axis_hot"></line><text x="59.95629119873047" y="779" class="idvc2_chart_axis_text" style="text-anchor: end;dominant-baseline: middle">1.00e-6</text><line x1="63.95629119873047" y1="703" x2="69.95629119873047" y2="703" class="idvc2_chart_axis"></line><line x1="63.95629119873047" y1="703" x2="69.95629119873047" y2="703" class="idvc2_chart_axis_hot"></line><text x="59.95629119873047" y="703" class="idvc2_chart_axis_text" style="text-anchor: end;dominant-baseline: middle">1.00e-5</text><line x1="63.95629119873047" y1="628" x2="69.95629119873047" y2="628" class="idvc2_chart_axis"></line><line x1="63.95629119873047" y1="628" x2="69.95629119873047" y2="628" class="idvc2_chart_axis_hot"></line><text x="59.95629119873047" y="628" class="idvc2_chart_axis_text" style="text-anchor: end;dominant-baseline: middle">0.0001</text><line x1="63.95629119873047" y1="552" x2="69.95629119873047" y2="552" class="idvc2_chart_axis"></line><line x1="63.95629119873047" y1="552" x2="69.95629119873047" y2="552" class="idvc2_chart_axis_hot"></line><text x="59.95629119873047" y="552" class="idvc2_chart_axis_text" style="text-anchor: end;dominant-baseline: middle">0.001</text><line x1="63.95629119873047" y1="476" x2="69.95629119873047" y2="476" class="idvc2_chart_axis"></line><line x1="63.95629119873047" y1="476" x2="69.95629119873047" y2="476" class="idvc2_chart_axis_hot"></line><text x="59.95629119873047" y="476" class="idvc2_chart_axis_text" style="text-anchor: end;dominant-baseline: middle">0.01</text><line x1="63.95629119873047" y1="401" x2="69.95629119873047" y2="401" class="idvc2_chart_axis"></line><line x1="63.95629119873047" y1="401" x2="69.95629119873047" y2="401" class="idvc2_chart_axis_hot"></line><text x="59.95629119873047" y="401" class="idvc2_chart_axis_text" style="text-anchor: end;dominant-baseline: middle">0.1</text><line x1="63.95629119873047" y1="325" x2="69.95629119873047" y2="325" class="idvc2_chart_axis"></line><line x1="63.95629119873047" y1="325" x2="69.95629119873047" y2="325" class="idvc2_chart_axis_hot"></line><text x="59.95629119873047" y="325" class="idvc2_chart_axis_text" style="text-anchor: end;dominant-baseline: middle">1</text><line x1="63.95629119873047" y1="249" x2="69.95629119873047" y2="249" class="idvc2_chart_axis"></line><line x1="63.95629119873047" y1="249" x2="69.95629119873047" y2="249" class="idvc2_chart_axis_hot"></line><text x="59.95629119873047" y="249" class="idvc2_chart_axis_text" style="text-anchor: end;dominant-baseline: middle">10</text><line x1="63.95629119873047" y1="174" x2="69.95629119873047" y2="174" class="idvc2_chart_axis"></line><line x1="63.95629119873047" y1="174" x2="69.95629119873047" y2="174" class="idvc2_chart_axis_hot"></line><text x="59.95629119873047" y="174" class="idvc2_chart_axis_text" style="text-anchor: end;dominant-baseline: middle">100</text><line x1="63.95629119873047" y1="98" x2="69.95629119873047" y2="98" class="idvc2_chart_axis"></line><line x1="63.95629119873047" y1="98" x2="69.95629119873047" y2="98" class="idvc2_chart_axis_hot"></line><text x="59.95629119873047" y="98" class="idvc2_chart_axis_text" style="text-anchor: end;dominant-baseline: middle">1000</text><line x1="63.95629119873047" y1="22" x2="69.95629119873047" y2="22" class="idvc2_chart_axis"></line><line x1="63.95629119873047" y1="22" x2="69.95629119873047" y2="22" class="idvc2_chart_axis_hot"></line><text x="59.95629119873047" y="22" class="idvc2_chart_axis_text" style="text-anchor: end;dominant-baseline: middle">10000</text><defs id="SVG_1_TextBackgroundDefs"><filter id="SVG_1_TextBackground" x="0" y="0" width="1" height="1"><feFlood flood-color="white"></feFlood><feComposite in="SourceGraphic"></feComposite></filter></defs><defs><marker id="SVG_1_TotalValue" markerWidth="6" markerHeight="10" refX="1" refY="5" orient="auto" markerUnits="userSpaceOnUse"><path d="M 0 0 L 0 10 L 6 5 L 0 0" class="idvc2_roofline_total_value_tick"></path></marker><marker id="SVG_1_TotalValueActive" markerWidth="6" markerHeight="10" refX="1" refY="5" orient="auto" markerUnits="userSpaceOnUse"><path d="M 0 0 L 0 10 L 6 5 L 0 0" class="idvc2_roofline_total_value_tick_active"></path></marker></defs><line x1="63.95629119873047" y1="166" x2="69.95629119873047" y2="166" class="idvc2_chart_axis idvc2_active" style="stroke: transparent; stroke-width:10; marker-start:url(#SVG_1_TotalValue)" ></line><line x1="63.95629119873047" y1="166" x2="69.95629119873047" y2="166" class="idvc2_chart_axis_hot"></line><text x="59.95629119873047" y="166" class="" style="text-anchor: end;dominant-baseline: middle" fill="none">125.65</text>    </svg>  </g>  <g transform="translate(70, 1022)">    <svg id="horz_axis" viewBox="0 0 1414 28" width="1414" height="28">      <line x1="0" y1="0.5" x2="1413.6343994140625" y2="0.5" class="idvc2_chart_axis"></line><line x1="47" y1="6" x2="47" y2="0" class="idvc2_chart_axis"></line><line x1="47" y1="6" x2="47" y2="0" class="idvc2_chart_axis_hot"></line><text x="47" y="10" class="idvc2_chart_axis_text" style="text-anchor: middle; dominant-baseline:text-before-edge;"> 0.0001 </text><line x1="279" y1="6" x2="279" y2="0" class="idvc2_chart_axis"></line><line x1="279" y1="6" x2="279" y2="0" class="idvc2_chart_axis_hot"></line><text x="279" y="10" class="idvc2_chart_axis_text" style="text-anchor: middle; dominant-baseline:text-before-edge;"> 0.001 </text><line x1="512" y1="6" x2="512" y2="0" class="idvc2_chart_axis"></line><line x1="512" y1="6" x2="512" y2="0" class="idvc2_chart_axis_hot"></line><text x="512" y="10" class="idvc2_chart_axis_text" style="text-anchor: middle; dominant-baseline:text-before-edge;"> 0.01 </text><line x1="744" y1="6" x2="744" y2="0" class="idvc2_chart_axis"></line><line x1="744" y1="6" x2="744" y2="0" class="idvc2_chart_axis_hot"></line><text x="744" y="10" class="idvc2_chart_axis_text" style="text-anchor: middle; dominant-baseline:text-before-edge;"> 0.1 </text><line x1="977" y1="6" x2="977" y2="0" class="idvc2_chart_axis"></line><line x1="977" y1="6" x2="977" y2="0" class="idvc2_chart_axis_hot"></line><text x="977" y="10" class="idvc2_chart_axis_text" style="text-anchor: middle; dominant-baseline:text-before-edge;"> 1 </text><line x1="1209" y1="6" x2="1209" y2="0" class="idvc2_chart_axis"></line><line x1="1209" y1="6" x2="1209" y2="0" class="idvc2_chart_axis_hot"></line><text x="1209" y="10" class="idvc2_chart_axis_text" style="text-anchor: middle; dominant-baseline:text-before-edge;"> 10 </text><defs><marker id="SVG_2_TotalValue" markerWidth="6" markerHeight="10" refX="1" refY="5" orient="auto" markerUnits="userSpaceOnUse"><path d="M 0 0 L 0 10 L 6 5 L 0 0" class="idvc2_roofline_total_value_tick"></path></marker><marker id="SVG_2_TotalValueActive" markerWidth="6" markerHeight="10" refX="1" refY="5" orient="auto" markerUnits="userSpaceOnUse"><path d="M 0 0 L 0 10 L 6 5 L 0 0" class="idvc2_roofline_total_value_tick_active"></path></marker></defs><line x1="723" y1="6" x2="723" y2="0" class="idvc2_chart_axis idvc2_active" style="stroke: transparent; stroke-width:10; marker-start:url(#SVG_2_TotalValue)" ></line><line x1="723" y1="6" x2="723" y2="0" class="idvc2_chart_axis_hot"></line><text x="723" y="10" class="" style="text-anchor: middle; dominant-baseline:text-before-edge;" fill="none"> 0.081 </text>    </svg>  </g>  <g transform="translate(70, 0)">    <svg id="roofline_content" viewBox="0 0 1414 1022" width="1414" height="1022">      <g id="SVG_0_BackgroundLayer"><polygon fill="rgb(160, 30, 30)" style="opacity:0.14" points="1226,1022 1226,108 1414,108 1414,1022"></polygon><polygon fill="rgb(200, 40, 40)" style="opacity:0.1" points="582,1022 582,167 763,108 1226,108 1226,1022"></polygon><polygon fill="rgb(240, 50, 50)" style="opacity:0.06" points="0,1022 0,356 582,167 582,1022"></polygon><line class="idvc2_roofline_grid_line" x1="1209" y1="1022" x2="1209" y2="0"></line><line class="idvc2_roofline_grid_line" x1="977" y1="1022" x2="977" y2="0"></line><line class="idvc2_roofline_grid_line" x1="744" y1="1022" x2="744" y2="0"></line><line class="idvc2_roofline_total_line" x1="723" y1="1022" x2="723" y2="0"></line><line class="idvc2_roofline_grid_line" x1="512" y1="1022" x2="512" y2="0"></line><line class="idvc2_roofline_grid_line" x1="279" y1="1022" x2="279" y2="0"></line><line class="idvc2_roofline_grid_line" x1="47" y1="1022" x2="47" y2="0"></line><line class="idvc2_roofline_grid_line" x1="0" y1="1006" x2="1414" y2="1006"></line><line class="idvc2_roofline_grid_line" x1="0" y1="930" x2="1414" y2="930"></line><line class="idvc2_roofline_grid_line" x1="0" y1="855" x2="1414" y2="855"></line><line class="idvc2_roofline_grid_line" x1="0" y1="779" x2="1414" y2="779"></line><line class="idvc2_roofline_grid_line" x1="0" y1="703" x2="1414" y2="703"></line><line class="idvc2_roofline_grid_line" x1="0" y1="628" x2="1414" y2="628"></line><line class="idvc2_roofline_grid_line" x1="0" y1="552" x2="1414" y2="552"></line><line class="idvc2_roofline_grid_line" x1="0" y1="476" x2="1414" y2="476"></line><line class="idvc2_roofline_grid_line" x1="0" y1="401" x2="1414" y2="401"></line><line class="idvc2_roofline_grid_line" x1="0" y1="325" x2="1414" y2="325"></line><line class="idvc2_roofline_grid_line" x1="0" y1="249" x2="1414" y2="249"></line><line class="idvc2_roofline_grid_line" x1="0" y1="174" x2="1414" y2="174"></line><line class="idvc2_roofline_total_line" x1="0" y1="166" x2="1414" y2="166"></line><line class="idvc2_roofline_grid_line" x1="0" y1="98" x2="1414" y2="98"></line><line class="idvc2_roofline_grid_line" x1="0" y1="22" x2="1414" y2="22"></line><line class="idvc2_roofline_line_hotarea idvc2_active" x1="0" y1="356" x2="833" y2="85"></line><line class="idvc2_roofline_line_hotarea idvc2_active" x1="0" y1="384" x2="919" y2="85"></line><line class="idvc2_roofline_line_hotarea idvc2_active" x1="0" y1="413" x2="1008" y2="85"></line><line class="idvc2_roofline_line_hotarea idvc2_active" x1="0" y1="507" x2="1296" y2="85"></line><line class="idvc2_roofline_line_hotarea idvc2_active" x1="833" y1="85" x2="1414" y2="85"></line><line class="idvc2_roofline_line_hotarea idvc2_active" x1="764" y1="108" x2="1414" y2="108"></line><line class="idvc2_roofline_line_hotarea idvc2_active" x1="763" y1="108" x2="1414" y2="108"></line><line class="idvc2_roofline_line_hotarea idvc2_active" x1="694" y1="130" x2="1414" y2="130"></line><line class="idvc2_roofline_line_hotarea idvc2_active" x1="582" y1="167" x2="1414" y2="167"></line><foreignObject class="zone_text_root idvc2_active" x="4.01052" y="985.95792" width="573.97896" height="20"><body xmlns="http://www.w3.org/1999/xhtml" class="zone_text_container"><div class="zone_text_container"><span class="zone_text_caption">Memory bound</span></div></body></foreignObject><foreignObject class="zone_text_root idvc2_active" x="586.01052" y="985.95792" width="635.97896" height="20"><body xmlns="http://www.w3.org/1999/xhtml" class="zone_text_container"><div class="zone_text_container"><span class="zone_text_caption">Bound by compute and memory roofs</span></div></body></foreignObject><foreignObject class="zone_text_root idvc2_active" x="1230.01052" y="985.95792" width="179.97896" height="20"><body xmlns="http://www.w3.org/1999/xhtml" class="zone_text_container"><div class="zone_text_container"><span class="zone_text_caption">Compute bound</span></div></body></foreignObject></g><g id="SVG_0_LoopsLayer"><circle class="roofline_loop idvc2_active" cx="118" cy="937" r="6" style="fill:yellow !important" ></circle><circle class="roofline_loop idvc2_active idvc2_roofline_point_current idvc2_roofline_point_selected" cx="726" cy="158" r="8" style="fill:red !important" ></circle></g><g id="SVG_0_RoofsLayer"><line class="idvc2_roofline_line SPVectorFMAPeak" x1="833" y1="85" x2="1414" y2="85"></line><line class="idvc2_roofline_line SPVectorAddPeak" x1="764" y1="108" x2="1414" y2="108"></line><rect x="578.99211" y="163.99211" width="6.0157799999999995" height="6.0157799999999995" class="roofline_roofs_cross idvc2_active"></rect><line x1="582" y1="170.00789" x2="582" y2="1022" class="roofline_coord_line"></line><rect x="663.99211" y="163.99211" width="6.0157799999999995" height="6.0157799999999995" class="roofline_roofs_cross idvc2_active"></rect><line x1="667" y1="170.00789" x2="667" y2="1022" class="roofline_coord_line"></line><rect x="752.99211" y="163.99211" width="6.0157799999999995" height="6.0157799999999995" class="roofline_roofs_cross idvc2_active"></rect><line x1="756" y1="170.00789" x2="756" y2="1022" class="roofline_coord_line"></line><rect x="1040.99211" y="163.99211" width="6.0157799999999995" height="6.0157799999999995" class="roofline_roofs_cross idvc2_active"></rect><line x1="1044" y1="170.00789" x2="1044" y2="1022" class="roofline_coord_line"></line><rect x="690.99211" y="126.99211" width="6.0157799999999995" height="6.0157799999999995" class="roofline_roofs_cross idvc2_active"></rect><line x1="694" y1="133.00789" x2="694" y2="1022" class="roofline_coord_line"></line><rect x="775.99211" y="126.99211" width="6.0157799999999995" height="6.0157799999999995" class="roofline_roofs_cross idvc2_active"></rect><line x1="779" y1="133.00789" x2="779" y2="1022" class="roofline_coord_line"></line><rect x="865.99211" y="126.99211" width="6.0157799999999995" height="6.0157799999999995" class="roofline_roofs_cross idvc2_active"></rect><line x1="869" y1="133.00789" x2="869" y2="1022" class="roofline_coord_line"></line><rect x="1153.99211" y="126.99211" width="6.0157799999999995" height="6.0157799999999995" class="roofline_roofs_cross idvc2_active"></rect><line x1="1157" y1="133.00789" x2="1157" y2="1022" class="roofline_coord_line"></line><rect x="759.99211" y="104.99211" width="6.0157799999999995" height="6.0157799999999995" class="roofline_roofs_cross idvc2_active"></rect><line x1="763" y1="111.00789" x2="763" y2="1022" class="roofline_coord_line"></line><rect x="845.99211" y="104.99211" width="6.0157799999999995" height="6.0157799999999995" class="roofline_roofs_cross idvc2_active"></rect><line x1="849" y1="111.00789" x2="849" y2="1022" class="roofline_coord_line"></line><rect x="934.99211" y="104.99211" width="6.0157799999999995" height="6.0157799999999995" class="roofline_roofs_cross idvc2_active"></rect><line x1="938" y1="111.00789" x2="938" y2="1022" class="roofline_coord_line"></line><rect x="1222.99211" y="104.99211" width="6.0157799999999995" height="6.0157799999999995" class="roofline_roofs_cross idvc2_active"></rect><line x1="1226" y1="111.00789" x2="1226" y2="1022" class="roofline_coord_line"></line><rect x="760.99211" y="104.99211" width="6.0157799999999995" height="6.0157799999999995" class="roofline_roofs_cross idvc2_active"></rect><line x1="764" y1="111.00789" x2="764" y2="1022" class="roofline_coord_line"></line><rect x="845.99211" y="104.99211" width="6.0157799999999995" height="6.0157799999999995" class="roofline_roofs_cross idvc2_active"></rect><line x1="849" y1="111.00789" x2="849" y2="1022" class="roofline_coord_line"></line><rect x="935.99211" y="104.99211" width="6.0157799999999995" height="6.0157799999999995" class="roofline_roofs_cross idvc2_active"></rect><line x1="939" y1="111.00789" x2="939" y2="1022" class="roofline_coord_line"></line><rect x="1223.99211" y="104.99211" width="6.0157799999999995" height="6.0157799999999995" class="roofline_roofs_cross idvc2_active"></rect><line x1="1227" y1="111.00789" x2="1227" y2="1022" class="roofline_coord_line"></line><rect x="829.99211" y="81.99211" width="6.0157799999999995" height="6.0157799999999995" class="roofline_roofs_cross idvc2_active"></rect><line x1="833" y1="88.00789" x2="833" y2="1022" class="roofline_coord_line"></line><rect x="915.99211" y="81.99211" width="6.0157799999999995" height="6.0157799999999995" class="roofline_roofs_cross idvc2_active"></rect><line x1="919" y1="88.00789" x2="919" y2="1022" class="roofline_coord_line"></line><rect x="1004.99211" y="81.99211" width="6.0157799999999995" height="6.0157799999999995" class="roofline_roofs_cross idvc2_active"></rect><line x1="1008" y1="88.00789" x2="1008" y2="1022" class="roofline_coord_line"></line><rect x="1292.99211" y="81.99211" width="6.0157799999999995" height="6.0157799999999995" class="roofline_roofs_cross idvc2_active"></rect><line x1="1296" y1="88.00789" x2="1296" y2="1022" class="roofline_coord_line"></line><line class="idvc2_roofline_line L3Bandwidth" x1="0" y1="413" x2="1008" y2="85" style=""></line><line class="idvc2_roofline_line DRAMBandwidth" x1="0" y1="507" x2="1296" y2="85" style=""></line><line class="idvc2_roofline_line selected" x1="0" y1="507" x2="1226" y2="108" style=""></line><line class="idvc2_roofline_line DPVectorFMAPeak selected" x1="763" y1="108" x2="1414" y2="108"></line><line class="idvc2_roofline_line DPVectorAddPeak" x1="694" y1="130" x2="1414" y2="130"></line><line class="idvc2_roofline_line ScalarAddPeak" x1="582" y1="167" x2="1414" y2="167"></line><line class="idvc2_roofline_line L2Bandwidth" x1="0" y1="384" x2="919" y2="85" style=""></line><line class="idvc2_roofline_line L1Bandwidth" x1="0" y1="356" x2="833" y2="85" style=""></line><line class="idvc2_roofline_line selected" x1="0" y1="356" x2="763" y2="108" style=""></line></g><g id="SVG_0_RoofsTextLayer"><text class="idvc2_chart_roofline_text" x="0" y="0" style="text-anchor: end; dominant-baseline:text-after-edge;" transform="matrix(1 0 0 1 1409.99 84)">SP Vector FMA Peak: 1476.79 GFLOPS</text><text class="idvc2_chart_roofline_text" x="0" y="0" style="text-anchor: end; dominant-baseline:text-before-edge;" transform="matrix(1 0 0 1 1409.99 109)">SP Vector Add Peak: 743.19 GFLOPS</text><text class="idvc2_chart_roofline_text" x="0" y="0" style="dominant-baseline:text-after-edge;" transform="matrix(0.950923 -0.309427 0.309427 0.950923 7.83503 409.399)">L3 Bandwidth: 1083.73 GB/sec</text><text class="idvc2_chart_roofline_text selected" x="0" y="0" style="dominant-baseline:text-after-edge;" transform="matrix(0.950861 -0.309617 0.309617 0.950861 7.83257 503.398)">DRAM Bandwidth: 62.56 GB/sec</text><text class="idvc2_chart_roofline_text selected" x="0" y="0" style="text-anchor: end; dominant-baseline:text-after-edge;" transform="matrix(1 0 0 1 1409.99 107)">DP Vector FMA Peak: 738.45 GFLOPS</text><text class="idvc2_chart_roofline_text" x="0" y="0" style="text-anchor: end; dominant-baseline:text-before-edge;" transform="matrix(1 0 0 1 1409.99 131)">DP Vector Add Peak: 371.99 GFLOPS</text><text class="idvc2_chart_roofline_text" x="0" y="0" style="text-anchor: end; dominant-baseline:text-after-edge;" transform="matrix(1 0 0 1 1409.99 166)">Scalar Add Peak: 122.42 GFLOPS</text><text class="idvc2_chart_roofline_text" x="0" y="0" style="dominant-baseline:text-after-edge;" transform="matrix(0.950935 -0.30939 0.30939 0.950935 7.83307 380.4)">L2 Bandwidth: 2626.68 GB/sec</text><text class="idvc2_chart_roofline_text selected" x="0" y="0" style="dominant-baseline:text-after-edge;" transform="matrix(0.950942 -0.30937 0.30937 0.950942 7.8353 352.399)">L1 Bandwidth: 6104.01 GB/sec</text></g><g id="SVG_0_ForegroundLayer"><line x1="703" y1="166" x2="743" y2="166" class="idvc2_chart_roofline_center_marker"></line><line x1="723" y1="146" x2="723" y2="186" class="idvc2_chart_roofline_center_marker"></line><use xlink:href="#SVG_0_expanderTemplate" class="roofline_expander idvc2_active" x="-118.269725" y="-105.51315"></use><text class="idvc2_roofline_roof_crossing_label" x="-100" y="-100" filter="url(#SVG_0_TextBackground)" style="text-anchor:end; dominant-baseline: middle;"><tspan class="idvc2_roofline_roof_crossing_label_value">508.67</tspan><tspan class="idvc2_roofline_roof_crossing_label_measure"> GFLOPS </tspan><tspan class="idvc2_roofline_roof_crossing_label_gain_x">(</tspan><tspan class="idvc2_roofline_roof_crossing_label_gain">3.2</tspan><tspan class="idvc2_roofline_roof_crossing_label_gain_x">x)</tspan></text><text class="idvc2_roofline_roof_crossing_label" x="-100" y="-100" filter="url(#SVG_0_TextBackground)" style="text-anchor:end; dominant-baseline: middle;"><tspan class="idvc2_roofline_roof_crossing_label_value">218.89</tspan><tspan class="idvc2_roofline_roof_crossing_label_measure"> GFLOPS </tspan><tspan class="idvc2_roofline_roof_crossing_label_gain_x">(</tspan><tspan class="idvc2_roofline_roof_crossing_label_gain">1.4</tspan><tspan class="idvc2_roofline_roof_crossing_label_gain_x">x)</tspan></text><use xlink:href="#SVG_0_crossingTemplate" class="idvc2_roofline_roof_crossing" x="-100" y="-100"></use><use xlink:href="#SVG_0_crossingTemplate" class="idvc2_roofline_roof_crossing" x="-100" y="-100"></use><line x1="-100" y1="0" x2="-100" y2="0" class="idvc2_roofline_roof_crossing_line"></line></g><rect x="0" y="0" width="0" height="0" class="idvc2_chart_selection"></rect><defs><filter id="SVG_0_TextBackground" x="0" y="0" width="1" height="1"><feFlood flood-color="white"></feFlood><feComposite in="SourceGraphic"></feComposite></filter></defs><defs id="SVG_0_line_arrows"><marker id="SVG_0_loops_matching_arrow" markerWidth="9.02367" markerHeight="9.02367" refX="9.02367" refY="5" orient="auto"><path d="M 1.00263 1.00263 L 1.00263 8.02104 L 8.02104 5 L 1.00263 1.00263" class="idvc2_roofline_loops_matching_arrow"></path></marker><marker id="SVG_0_ChildArrow" markerWidth="9.02367" markerHeight="9.02367" refX="9.02367" refY="5" orient="auto"><path d="M 1.00263 1.00263 L 1.00263 8.02104 L 8.02104 5 L 1.00263 1.00263" class="roofline_child_arrow"></path></marker><marker id="SVG_0_ParentArrow" markerWidth="9.02367" markerHeight="9.02367" refX="0" refY="5" orient="auto"><path d="M 1.00263 1.00263 L 1.00263 8.02104 L 8.02104 5 L 1.00263 1.00263" class="roofline_parent_arrow"></path></marker></defs><defs id="SVG_0_fill_patterns"><pattern id="SVG_0_loopFill-6-4-cl" patternContentUnits="objectBoundingBox" width="100%" height="100%"><circle cx=".5" cy=".5" r=".5" fill="white"></circle><circle cx=".5" cy=".5" r="0.3333333333333333" fill="green" stroke="black" stroke-width="0.05"></circle></pattern><pattern id="SVG_0_loopFill-8-4-cl" patternContentUnits="objectBoundingBox" width="100%" height="100%"><circle cx=".5" cy=".5" r=".5" fill="white"></circle><circle cx=".5" cy=".5" r="0.25" fill="green" stroke="black" stroke-width="0.05"></circle></pattern><pattern id="SVG_0_loopFill-8-6-cl" patternContentUnits="objectBoundingBox" width="100%" height="100%"><circle cx=".5" cy=".5" r=".5" fill="white"></circle><circle cx=".5" cy=".5" r="0.375" fill="yellow" stroke="black" stroke-width="0.05"></circle></pattern></defs><defs><g id="SVG_0_expanderTemplate"><rect x="0" y="0" width="11.026299999999999" height="11.026299999999999" class=""></rect><line x1="2.00526" y1="5.5131499999999996" x2="9.02104" y2="5.5131499999999996" class="roofline_expander_horz_line"></line><line x1="5.5131499999999996" y1="2.00526" x2="5.5131499999999996" y2="9.02104" class="roofline_expander_vert_line"></line></g></defs><defs><line id="SVG_0_crossingTemplate" x1="-4" y1="-4" x2="4" y2="4"></line></defs><text x="2" y="2" style="font-size: 90%; writing-mode: tb; dominant-baseline: text-after-edge">GFLOPS</text><text x="1410" y="1020" style="font-size: 90%; text-anchor: end; dominant-baseline: text-after-edge"><tspan>FLOP/Byte</tspan><tspan style="font-size: 90%;"> (Arithmetic Intensity)</tspan></text>    </svg>  </g>  </svg>