<svg xmlns="http://www.w3.org/2000/svg" xmlns:xlink="http://www.w3.org/1999/xlink" viewBox="0 0 1484 1050">  <style>    svg { font : caption; }      .idvc2_chart_axis { fill: none; stroke: gray; stroke-width: 1; vector-effect: non-scaling-stroke; shape-rendering: crispEdges; }      .idvc2_chart_axis_text { fill: #333; font-size: 95%; stroke: none; stroke-width: 1; vector-effect: non-scaling-stroke; }      .idvc2_chart_roofline_text { fill: gray; font-size: 90%; }      .idvc2_chart_roofline_text.selected { fill: #000; }      .idvc2_chart_roofline_text.hidden { fill: none; }      .idvc2_chart_roofline_explanation { fill: none; }      .idvc2_chart_roofline_center_marker { stroke: #000; stroke-width: 1 }      .roofline_child_line { stroke: none; fill: none; }      .roofline_parent_line { stroke: none; fill: none; }      .roofline_child_arrow { stroke: none; fill: none; }      .roofline_parent_arrow { stroke: none; fill: none; }      .roofline_loop { stroke: #000; stroke-width: 1; vector-effect: non-scaling-stroke; shape-rendering: geometricPrecision; fill: lightgray; }      .roofline_loop.no_loop_position { stroke: darkgray; fill: #eee; }      .roofline_loop.loop_inactive_result { opacity: 0.4; }      .idvc2_roofline_line { stroke: #999; stroke-dasharray: 4,4; fill: none; stroke-width: 1; vector-effect: non-scaling-stroke; shape-rendering: crispEdges; }      .idvc2_roofline_grid_line { stroke: #ddd; fill: none; stroke-width: 1; vector-effect: non-scaling-stroke; shape-rendering: crispEdges; }      .idvc2_roofline_line.selected { stroke: #000; shape-rendering: auto; stroke-dasharray: none; }      .idvc2_roofline_line_hotarea { stroke: none; fill: none; }      .roofline_roofs_cross { stroke: none; fill: none; }      .roofline_coord_line { stroke: none; fill: none; stroke-width: 1; vector-effect: non-scaling-stroke; shape-rendering: crispEdges; }      .roofline_coord_line.selected { stroke: gray; stroke-dasharray: none !important; }      .roofline_expander { stroke: none; fill: none; }      .roofline_expander_vert_line { stroke: none; fill: none; }      .roofline_expander_horz_line { stroke: none; fill: none; }      .idvc2_roofline_roof_crossing { stroke: none; fill: none; }      .idvc2_roofline_roof_crossing_line { stroke: none; fill: none; }      .idvc2_roofline_roof_crossing_label { stroke: none; fill: none; }      .idvc2_roofline_loops_matching_line { stroke: black; stroke-dasharray: 4,4; fill: none; vector-effect: non-scaling-stroke; shape-rendering: crispEdges; }      .idvc2_roofline_loops_matching_arrow { stroke: #000; fill: black; vector-effect: non-scaling-stroke; shape-rendering: geometricPrecision; }      .idvc2_roofline_loops_matching_label { font-size: 100%; }      .idvc2_roofline_total_value_tick_active { stroke: none; fill: none; }      .idvc2_roofline_total_value_tick { stroke: none; fill: none; }      .stairs_delta_line {stroke-width: 2;vector-effect: non-scaling-stroke;shape-rendering: geometricPrecision;}      .stairs_connection_line {stroke: black;stroke-width: 1;stroke-dasharray: 2,2;vector-effect: non-scaling-stroke;shape-rendering: geometricPrecision;}      .stairs_delta_ends {stroke-width: 3;vector-effect: non-scaling-stroke;shape-rendering: geometricPrecision;}      .dumbbell_line {stroke: #2D3741;stroke-width: 1.5;fill: none;vector-effect: non-scaling-stroke;shape-rendering: geometricPrecision;}      .zone_text_root {position: relative; overflow: visible;}       .zone_text_container {position: absolute; left: 0; bottom: 0; right: 0; text-align: center; overflow-wrap: break-word; word-wrap: break-word; hyphens: auto; color: rgb(160, 0, 0); background: transparent; opacity: 0.6;}      .zone_text_caption {min-width: 0; pointer-events: none;}      .zone_text_explanation {font-size: 800vertical-align: super;}      .idvc2_hidden { stroke: none !important; fill: none !important; }  </style>  <g>    <svg id="vert_axis" viewBox="0 0 70 1022" width="70" height="1022">      <line x1="69.45629119873047" y1="0" x2="69.45629119873047" y2="1022.0101318359375" class="idvc2_chart_axis"></line><line x1="63.95629119873047" y1="874" x2="69.95629119873047" y2="874" class="idvc2_chart_axis"></line><line x1="63.95629119873047" y1="874" x2="69.95629119873047" y2="874" class="idvc2_chart_axis_hot"></line><text x="59.95629119873047" y="874" class="idvc2_chart_axis_text" style="text-anchor: end;dominant-baseline: middle">0.4</text><line x1="63.95629119873047" y1="797" x2="69.95629119873047" y2="797" class="idvc2_chart_axis"></line><line x1="63.95629119873047" y1="797" x2="69.95629119873047" y2="797" class="idvc2_chart_axis_hot"></line><text x="59.95629119873047" y="797" class="idvc2_chart_axis_text" style="text-anchor: end;dominant-baseline: middle">0.7</text><line x1="63.95629119873047" y1="748" x2="69.95629119873047" y2="748" class="idvc2_chart_axis"></line><line x1="63.95629119873047" y1="748" x2="69.95629119873047" y2="748" class="idvc2_chart_axis_hot"></line><text x="59.95629119873047" y="748" class="idvc2_chart_axis_text" style="text-anchor: end;dominant-baseline: middle">1</text><line x1="63.95629119873047" y1="559" x2="69.95629119873047" y2="559" class="idvc2_chart_axis"></line><line x1="63.95629119873047" y1="559" x2="69.95629119873047" y2="559" class="idvc2_chart_axis_hot"></line><text x="59.95629119873047" y="559" class="idvc2_chart_axis_text" style="text-anchor: end;dominant-baseline: middle">4</text><line x1="63.95629119873047" y1="482" x2="69.95629119873047" y2="482" class="idvc2_chart_axis"></line><line x1="63.95629119873047" y1="482" x2="69.95629119873047" y2="482" class="idvc2_chart_axis_hot"></line><text x="59.95629119873047" y="482" class="idvc2_chart_axis_text" style="text-anchor: end;dominant-baseline: middle">7</text><line x1="63.95629119873047" y1="433" x2="69.95629119873047" y2="433" class="idvc2_chart_axis"></line><line x1="63.95629119873047" y1="433" x2="69.95629119873047" y2="433" class="idvc2_chart_axis_hot"></line><text x="59.95629119873047" y="433" class="idvc2_chart_axis_text" style="text-anchor: end;dominant-baseline: middle">10</text><line x1="63.95629119873047" y1="244" x2="69.95629119873047" y2="244" class="idvc2_chart_axis"></line><line x1="63.95629119873047" y1="244" x2="69.95629119873047" y2="244" class="idvc2_chart_axis_hot"></line><text x="59.95629119873047" y="244" class="idvc2_chart_axis_text" style="text-anchor: end;dominant-baseline: middle">40</text><line x1="63.95629119873047" y1="167" x2="69.95629119873047" y2="167" class="idvc2_chart_axis"></line><line x1="63.95629119873047" y1="167" x2="69.95629119873047" y2="167" class="idvc2_chart_axis_hot"></line><text x="59.95629119873047" y="167" class="idvc2_chart_axis_text" style="text-anchor: end;dominant-baseline: middle">70</text><line x1="63.95629119873047" y1="118" x2="69.95629119873047" y2="118" class="idvc2_chart_axis"></line><line x1="63.95629119873047" y1="118" x2="69.95629119873047" y2="118" class="idvc2_chart_axis_hot"></line><text x="59.95629119873047" y="118" class="idvc2_chart_axis_text" style="text-anchor: end;dominant-baseline: middle">100</text><defs id="SVG_1_TextBackgroundDefs"><filter id="SVG_1_TextBackground" x="0" y="0" width="1" height="1"><feFlood flood-color="white"></feFlood><feComposite in="SourceGraphic"></feComposite></filter></defs><defs><marker id="SVG_1_TotalValue" markerWidth="6" markerHeight="10" refX="1" refY="5" orient="auto" markerUnits="userSpaceOnUse"><path d="M 0 0 L 0 10 L 6 5 L 0 0" class="idvc2_roofline_total_value_tick"></path></marker><marker id="SVG_1_TotalValueActive" markerWidth="6" markerHeight="10" refX="1" refY="5" orient="auto" markerUnits="userSpaceOnUse"><path d="M 0 0 L 0 10 L 6 5 L 0 0" class="idvc2_roofline_total_value_tick_active"></path></marker></defs><line x1="63.95629119873047" y1="490" x2="69.95629119873047" y2="490" class="idvc2_chart_axis idvc2_active" style="stroke: transparent; stroke-width:10; marker-start:url(#SVG_1_TotalValue)" ></line><line x1="63.95629119873047" y1="490" x2="69.95629119873047" y2="490" class="idvc2_chart_axis_hot"></line><text x="59.95629119873047" y="490" class="" style="text-anchor: end;dominant-baseline: middle" fill="none">6.59</text>    </svg>  </g>  <g transform="translate(70, 1022)">    <svg id="horz_axis" viewBox="0 0 1414 28" width="1414" height="28">      <line x1="0" y1="0.5" x2="1413.6343994140625" y2="0.5" class="idvc2_chart_axis"></line><line x1="253" y1="6" x2="253" y2="0" class="idvc2_chart_axis"></line><line x1="253" y1="6" x2="253" y2="0" class="idvc2_chart_axis_hot"></line><text x="253" y="10" class="idvc2_chart_axis_text" style="text-anchor: middle; dominant-baseline:text-before-edge;"> 0.04 </text><line x1="369" y1="6" x2="369" y2="0" class="idvc2_chart_axis"></line><line x1="369" y1="6" x2="369" y2="0" class="idvc2_chart_axis_hot"></line><text x="369" y="10" class="idvc2_chart_axis_text" style="text-anchor: middle; dominant-baseline:text-before-edge;"> 0.07 </text><line x1="444" y1="6" x2="444" y2="0" class="idvc2_chart_axis"></line><line x1="444" y1="6" x2="444" y2="0" class="idvc2_chart_axis_hot"></line><text x="444" y="10" class="idvc2_chart_axis_text" style="text-anchor: middle; dominant-baseline:text-before-edge;"> 0.1 </text><line x1="732" y1="6" x2="732" y2="0" class="idvc2_chart_axis"></line><line x1="732" y1="6" x2="732" y2="0" class="idvc2_chart_axis_hot"></line><text x="732" y="10" class="idvc2_chart_axis_text" style="text-anchor: middle; dominant-baseline:text-before-edge;"> 0.4 </text><line x1="848" y1="6" x2="848" y2="0" class="idvc2_chart_axis"></line><line x1="848" y1="6" x2="848" y2="0" class="idvc2_chart_axis_hot"></line><text x="848" y="10" class="idvc2_chart_axis_text" style="text-anchor: middle; dominant-baseline:text-before-edge;"> 0.7 </text><line x1="923" y1="6" x2="923" y2="0" class="idvc2_chart_axis"></line><line x1="923" y1="6" x2="923" y2="0" class="idvc2_chart_axis_hot"></line><text x="923" y="10" class="idvc2_chart_axis_text" style="text-anchor: middle; dominant-baseline:text-before-edge;"> 1 </text><line x1="1211" y1="6" x2="1211" y2="0" class="idvc2_chart_axis"></line><line x1="1211" y1="6" x2="1211" y2="0" class="idvc2_chart_axis_hot"></line><text x="1211" y="10" class="idvc2_chart_axis_text" style="text-anchor: middle; dominant-baseline:text-before-edge;"> 4 </text><line x1="1328" y1="6" x2="1328" y2="0" class="idvc2_chart_axis"></line><line x1="1328" y1="6" x2="1328" y2="0" class="idvc2_chart_axis_hot"></line><text x="1328" y="10" class="idvc2_chart_axis_text" style="text-anchor: middle; dominant-baseline:text-before-edge;"> 7 </text><line x1="1402" y1="6" x2="1402" y2="0" class="idvc2_chart_axis"></line><line x1="1402" y1="6" x2="1402" y2="0" class="idvc2_chart_axis_hot"></line><text x="1402" y="10" class="idvc2_chart_axis_text" style="text-anchor: middle; dominant-baseline:text-before-edge;"> 10 </text><defs><marker id="SVG_2_TotalValue" markerWidth="6" markerHeight="10" refX="1" refY="5" orient="auto" markerUnits="userSpaceOnUse"><path d="M 0 0 L 0 10 L 6 5 L 0 0" class="idvc2_roofline_total_value_tick"></path></marker><marker id="SVG_2_TotalValueActive" markerWidth="6" markerHeight="10" refX="1" refY="5" orient="auto" markerUnits="userSpaceOnUse"><path d="M 0 0 L 0 10 L 6 5 L 0 0" class="idvc2_roofline_total_value_tick_active"></path></marker></defs><line x1="490" y1="6" x2="490" y2="0" class="idvc2_chart_axis idvc2_active" style="stroke: transparent; stroke-width:10; marker-start:url(#SVG_2_TotalValue)" ></line><line x1="490" y1="6" x2="490" y2="0" class="idvc2_chart_axis_hot"></line><text x="490" y="10" class="" style="text-anchor: middle; dominant-baseline:text-before-edge;" fill="none"> 0.12 </text>    </svg>  </g>  <g transform="translate(70, 0)">    <svg id="roofline_content" viewBox="0 0 1414 1022" width="1414" height="1022">      <g id="SVG_0_BackgroundLayer"><polygon fill="rgb(160, 30, 30)" style="opacity:0.14" points="1007,1022 1007,275 1414,275 1414,1022"></polygon><polygon fill="rgb(200, 40, 40)" style="opacity:0.1" points="118,1022 118,464 406,275 1007,275 1007,1022"></polygon><polygon fill="rgb(240, 50, 50)" style="opacity:0.06" points="0,1022 0,542 118,464 118,1022"></polygon><line class="idvc2_roofline_grid_line" x1="1402" y1="1022" x2="1402" y2="0"></line><line class="idvc2_roofline_grid_line" x1="1328" y1="1022" x2="1328" y2="0"></line><line class="idvc2_roofline_grid_line" x1="1211" y1="1022" x2="1211" y2="0"></line><line class="idvc2_roofline_grid_line" x1="923" y1="1022" x2="923" y2="0"></line><line class="idvc2_roofline_grid_line" x1="848" y1="1022" x2="848" y2="0"></line><line class="idvc2_roofline_grid_line" x1="732" y1="1022" x2="732" y2="0"></line><line class="idvc2_roofline_total_line" x1="490" y1="1022" x2="490" y2="0"></line><line class="idvc2_roofline_grid_line" x1="444" y1="1022" x2="444" y2="0"></line><line class="idvc2_roofline_grid_line" x1="369" y1="1022" x2="369" y2="0"></line><line class="idvc2_roofline_grid_line" x1="253" y1="1022" x2="253" y2="0"></line><line class="idvc2_roofline_grid_line" x1="0" y1="874" x2="1414" y2="874"></line><line class="idvc2_roofline_grid_line" x1="0" y1="797" x2="1414" y2="797"></line><line class="idvc2_roofline_grid_line" x1="0" y1="748" x2="1414" y2="748"></line><line class="idvc2_roofline_grid_line" x1="0" y1="559" x2="1414" y2="559"></line><line class="idvc2_roofline_total_line" x1="0" y1="490" x2="1414" y2="490"></line><line class="idvc2_roofline_grid_line" x1="0" y1="482" x2="1414" y2="482"></line><line class="idvc2_roofline_grid_line" x1="0" y1="433" x2="1414" y2="433"></line><line class="idvc2_roofline_grid_line" x1="0" y1="244" x2="1414" y2="244"></line><line class="idvc2_roofline_grid_line" x1="0" y1="167" x2="1414" y2="167"></line><line class="idvc2_roofline_grid_line" x1="0" y1="118" x2="1414" y2="118"></line><line class="idvc2_roofline_line_hotarea idvc2_active" x1="0" y1="542" x2="695" y2="85"></line><line class="idvc2_roofline_line_hotarea idvc2_active" x1="0" y1="657" x2="870" y2="85"></line><line class="idvc2_roofline_line_hotarea idvc2_active" x1="0" y1="777" x2="1053" y2="85"></line><line class="idvc2_roofline_line_hotarea idvc2_active" x1="0" y1="937" x2="1296" y2="85"></line><line class="idvc2_roofline_line_hotarea idvc2_active" x1="695" y1="85" x2="1414" y2="85"></line><line class="idvc2_roofline_line_hotarea idvc2_active" x1="551" y1="180" x2="1414" y2="180"></line><line class="idvc2_roofline_line_hotarea idvc2_active" x1="551" y1="180" x2="1414" y2="180"></line><line class="idvc2_roofline_line_hotarea idvc2_active" x1="406" y1="275" x2="1414" y2="275"></line><line class="idvc2_roofline_line_hotarea idvc2_active" x1="118" y1="464" x2="1414" y2="464"></line><foreignObject class="zone_text_root idvc2_active" x="4.01052" y="985.95792" width="109.97896" height="20"><body xmlns="http://www.w3.org/1999/xhtml" class="zone_text_container"><div class="zone_text_container"><span class="zone_text_caption">Memory bound</span></div></body></foreignObject><foreignObject class="zone_text_root idvc2_active" x="122.01052" y="985.95792" width="880.97896" height="20"><body xmlns="http://www.w3.org/1999/xhtml" class="zone_text_container"><div class="zone_text_container"><span class="zone_text_caption">Bound by compute and memory roofs</span></div></body></foreignObject><foreignObject class="zone_text_root idvc2_active" x="1011.01052" y="985.95792" width="398.97896000000003" height="20"><body xmlns="http://www.w3.org/1999/xhtml" class="zone_text_container"><div class="zone_text_container"><span class="zone_text_caption">Compute bound</span></div></body></foreignObject></g><g id="SVG_0_LoopsLayer"><circle class="roofline_loop idvc2_active idvc2_roofline_point_current idvc2_roofline_point_selected" cx="490" cy="490" r="8" style="fill:red !important" ></circle></g><g id="SVG_0_RoofsLayer"><line class="idvc2_roofline_line L3Bandwidth(single-threaded)" x1="0" y1="777" x2="1053" y2="85" style=""></line><line class="idvc2_roofline_line DRAMBandwidth(single-threaded)" x1="0" y1="937" x2="1296" y2="85" style=""></line><line class="idvc2_roofline_line selected" x1="0" y1="937" x2="1007" y2="275" style=""></line><line class="idvc2_roofline_line DPVectorFMAPeak(single-threaded)" x1="551" y1="180" x2="1414" y2="180"></line><rect x="114.99211" y="460.99211" width="6.0157799999999995" height="6.0157799999999995" class="roofline_roofs_cross idvc2_active"></rect><line x1="118" y1="467.00789" x2="118" y2="1022" class="roofline_coord_line"></line><rect x="289.99211" y="460.99211" width="6.0157799999999995" height="6.0157799999999995" class="roofline_roofs_cross idvc2_active"></rect><line x1="293" y1="467.00789" x2="293" y2="1022" class="roofline_coord_line"></line><rect x="472.99211" y="460.99211" width="6.0157799999999995" height="6.0157799999999995" class="roofline_roofs_cross idvc2_active"></rect><line x1="476" y1="467.00789" x2="476" y2="1022" class="roofline_coord_line"></line><rect x="715.99211" y="460.99211" width="6.0157799999999995" height="6.0157799999999995" class="roofline_roofs_cross idvc2_active"></rect><line x1="719" y1="467.00789" x2="719" y2="1022" class="roofline_coord_line"></line><rect x="402.99211" y="271.99211" width="6.0157799999999995" height="6.0157799999999995" class="roofline_roofs_cross idvc2_active"></rect><line x1="406" y1="278.00789" x2="406" y2="1022" class="roofline_coord_line"></line><rect x="578.99211" y="271.99211" width="6.0157799999999995" height="6.0157799999999995" class="roofline_roofs_cross idvc2_active"></rect><line x1="582" y1="278.00789" x2="582" y2="1022" class="roofline_coord_line"></line><rect x="761.99211" y="271.99211" width="6.0157799999999995" height="6.0157799999999995" class="roofline_roofs_cross idvc2_active"></rect><line x1="765" y1="278.00789" x2="765" y2="1022" class="roofline_coord_line"></line><rect x="1003.99211" y="271.99211" width="6.0157799999999995" height="6.0157799999999995" class="roofline_roofs_cross idvc2_active"></rect><line x1="1007" y1="278.00789" x2="1007" y2="1022" class="roofline_coord_line"></line><rect x="547.99211" y="176.99211" width="6.0157799999999995" height="6.0157799999999995" class="roofline_roofs_cross idvc2_active"></rect><line x1="551" y1="183.00789" x2="551" y2="1022" class="roofline_coord_line"></line><rect x="722.99211" y="176.99211" width="6.0157799999999995" height="6.0157799999999995" class="roofline_roofs_cross idvc2_active"></rect><line x1="726" y1="183.00789" x2="726" y2="1022" class="roofline_coord_line"></line><rect x="905.99211" y="176.99211" width="6.0157799999999995" height="6.0157799999999995" class="roofline_roofs_cross idvc2_active"></rect><line x1="909" y1="183.00789" x2="909" y2="1022" class="roofline_coord_line"></line><rect x="1148.99211" y="176.99211" width="6.0157799999999995" height="6.0157799999999995" class="roofline_roofs_cross idvc2_active"></rect><line x1="1152" y1="183.00789" x2="1152" y2="1022" class="roofline_coord_line"></line><rect x="547.99211" y="176.99211" width="6.0157799999999995" height="6.0157799999999995" class="roofline_roofs_cross idvc2_active"></rect><line x1="551" y1="183.00789" x2="551" y2="1022" class="roofline_coord_line"></line><rect x="722.99211" y="176.99211" width="6.0157799999999995" height="6.0157799999999995" class="roofline_roofs_cross idvc2_active"></rect><line x1="726" y1="183.00789" x2="726" y2="1022" class="roofline_coord_line"></line><rect x="905.99211" y="176.99211" width="6.0157799999999995" height="6.0157799999999995" class="roofline_roofs_cross idvc2_active"></rect><line x1="909" y1="183.00789" x2="909" y2="1022" class="roofline_coord_line"></line><rect x="1148.99211" y="176.99211" width="6.0157799999999995" height="6.0157799999999995" class="roofline_roofs_cross idvc2_active"></rect><line x1="1152" y1="183.00789" x2="1152" y2="1022" class="roofline_coord_line"></line><rect x="691.99211" y="81.99211" width="6.0157799999999995" height="6.0157799999999995" class="roofline_roofs_cross idvc2_active"></rect><line x1="695" y1="88.00789" x2="695" y2="1022" class="roofline_coord_line"></line><rect x="866.99211" y="81.99211" width="6.0157799999999995" height="6.0157799999999995" class="roofline_roofs_cross idvc2_active"></rect><line x1="870" y1="88.00789" x2="870" y2="1022" class="roofline_coord_line"></line><rect x="1049.99211" y="81.99211" width="6.0157799999999995" height="6.0157799999999995" class="roofline_roofs_cross idvc2_active"></rect><line x1="1053" y1="88.00789" x2="1053" y2="1022" class="roofline_coord_line"></line><rect x="1292.99211" y="81.99211" width="6.0157799999999995" height="6.0157799999999995" class="roofline_roofs_cross idvc2_active"></rect><line x1="1296" y1="88.00789" x2="1296" y2="1022" class="roofline_coord_line"></line><line class="idvc2_roofline_line ScalarAddPeak(single-threaded)" x1="118" y1="464" x2="1414" y2="464"></line><line class="idvc2_roofline_line L2Bandwidth(single-threaded)" x1="0" y1="657" x2="870" y2="85" style=""></line><line class="idvc2_roofline_line L1Bandwidth(single-threaded)" x1="0" y1="542" x2="695" y2="85" style=""></line><line class="idvc2_roofline_line selected" x1="0" y1="542" x2="406" y2="275" style=""></line><line class="idvc2_roofline_line DPVectorAddPeak(single-threaded) selected" x1="406" y1="275" x2="1414" y2="275"></line><line class="idvc2_roofline_line SPVectorAddPeak(single-threaded)" x1="551" y1="180" x2="1414" y2="180"></line><line class="idvc2_roofline_line SPVectorFMAPeak(single-threaded)" x1="695" y1="85" x2="1414" y2="85"></line></g><g id="SVG_0_RoofsTextLayer"><text class="idvc2_chart_roofline_text" x="0" y="0" style="dominant-baseline:text-after-edge;" transform="matrix(0.835695 -0.549194 0.549194 0.835695 10.4992 768.904)">L3 Bandwidth: 68.09 GB/sec</text><text class="idvc2_chart_roofline_text selected" x="0" y="0" style="dominant-baseline:text-after-edge;" transform="matrix(0.835604 -0.549332 0.549332 0.835604 10.4423 928.938)">DRAM Bandwidth: 21.22 GB/sec</text><text class="idvc2_chart_roofline_text" x="0" y="0" style="text-anchor: end; dominant-baseline:text-after-edge;" transform="matrix(1 0 0 1 1409.99 179)">DP Vector FMA Peak: 63.79 GFLOPS</text><text class="idvc2_chart_roofline_text" x="0" y="0" style="text-anchor: end; dominant-baseline:text-after-edge;" transform="matrix(1 0 0 1 1409.99 463)">Scalar Add Peak: 7.97 GFLOPS</text><text class="idvc2_chart_roofline_text" x="0" y="0" style="dominant-baseline:text-after-edge;" transform="matrix(0.83558 -0.549369 0.549369 0.83558 10.4865 648.909)">L2 Bandwidth: 164.09 GB/sec</text><text class="idvc2_chart_roofline_text selected" x="0" y="0" style="dominant-baseline:text-after-edge;" transform="matrix(0.835548 -0.549418 0.549418 0.835548 10.4741 533.916)">L1 Bandwidth: 381.13 GB/sec</text><text class="idvc2_chart_roofline_text selected" x="0" y="0" style="text-anchor: end; dominant-baseline:text-after-edge;" transform="matrix(1 0 0 1 1409.99 274)">DP Vector Add Peak: 31.88 GFLOPS</text><text class="idvc2_chart_roofline_text" x="0" y="0" style="text-anchor: end; dominant-baseline:text-before-edge;" transform="matrix(1 0 0 1 1409.99 181)">SP Vector Add Peak: 63.78 GFLOPS</text><text class="idvc2_chart_roofline_text" x="0" y="0" style="text-anchor: end; dominant-baseline:text-after-edge;" transform="matrix(1 0 0 1 1409.99 84)">SP Vector FMA Peak: 127.44 GFLOPS</text></g><g id="SVG_0_ForegroundLayer"><line x1="470" y1="490" x2="510" y2="490" class="idvc2_chart_roofline_center_marker"></line><line x1="490" y1="470" x2="490" y2="510" class="idvc2_chart_roofline_center_marker"></line><use xlink:href="#SVG_0_expanderTemplate" class="roofline_expander idvc2_active" x="-118.269725" y="-105.51315"></use><text class="idvc2_roofline_roof_crossing_label" x="-100" y="-100" filter="url(#SVG_0_TextBackground)" style="text-anchor:end; dominant-baseline: middle;"><tspan class="idvc2_roofline_roof_crossing_label_value"></tspan><tspan class="idvc2_roofline_roof_crossing_label_measure"> GFLOPS </tspan><tspan class="idvc2_roofline_roof_crossing_label_gain_x">(</tspan><tspan class="idvc2_roofline_roof_crossing_label_gain"></tspan><tspan class="idvc2_roofline_roof_crossing_label_gain_x">x)</tspan></text><text class="idvc2_roofline_roof_crossing_label" x="-100" y="-100" filter="url(#SVG_0_TextBackground)" style="text-anchor:end; dominant-baseline: middle;"><tspan class="idvc2_roofline_roof_crossing_label_value"></tspan><tspan class="idvc2_roofline_roof_crossing_label_measure"> GFLOPS </tspan><tspan class="idvc2_roofline_roof_crossing_label_gain_x">(</tspan><tspan class="idvc2_roofline_roof_crossing_label_gain"></tspan><tspan class="idvc2_roofline_roof_crossing_label_gain_x">x)</tspan></text><use xlink:href="#SVG_0_crossingTemplate" class="idvc2_roofline_roof_crossing" x="-100" y="-100"></use><use xlink:href="#SVG_0_crossingTemplate" class="idvc2_roofline_roof_crossing" x="-100" y="-100"></use><line x1="-100" y1="0" x2="-100" y2="0" class="idvc2_roofline_roof_crossing_line"></line></g><rect x="0" y="0" width="0" height="0" class="idvc2_chart_selection"></rect><defs><filter id="SVG_0_TextBackground" x="0" y="0" width="1" height="1"><feFlood flood-color="white"></feFlood><feComposite in="SourceGraphic"></feComposite></filter></defs><defs id="SVG_0_line_arrows"><marker id="SVG_0_loops_matching_arrow" markerWidth="9.02367" markerHeight="9.02367" refX="9.02367" refY="5" orient="auto"><path d="M 1.00263 1.00263 L 1.00263 8.02104 L 8.02104 5 L 1.00263 1.00263" class="idvc2_roofline_loops_matching_arrow"></path></marker><marker id="SVG_0_ChildArrow" markerWidth="9.02367" markerHeight="9.02367" refX="9.02367" refY="5" orient="auto"><path d="M 1.00263 1.00263 L 1.00263 8.02104 L 8.02104 5 L 1.00263 1.00263" class="roofline_child_arrow"></path></marker><marker id="SVG_0_ParentArrow" markerWidth="9.02367" markerHeight="9.02367" refX="0" refY="5" orient="auto"><path d="M 1.00263 1.00263 L 1.00263 8.02104 L 8.02104 5 L 1.00263 1.00263" class="roofline_parent_arrow"></path></marker></defs><defs id="SVG_0_fill_patterns"><pattern id="SVG_0_loopFill-6-4-cl" patternContentUnits="objectBoundingBox" width="100%" height="100%"><circle cx=".5" cy=".5" r=".5" fill="white"></circle><circle cx=".5" cy=".5" r="0.3333333333333333" fill="green" stroke="black" stroke-width="0.05"></circle></pattern><pattern id="SVG_0_loopFill-8-4-cl" patternContentUnits="objectBoundingBox" width="100%" height="100%"><circle cx=".5" cy=".5" r=".5" fill="white"></circle><circle cx=".5" cy=".5" r="0.25" fill="green" stroke="black" stroke-width="0.05"></circle></pattern><pattern id="SVG_0_loopFill-8-6-cl" patternContentUnits="objectBoundingBox" width="100%" height="100%"><circle cx=".5" cy=".5" r=".5" fill="white"></circle><circle cx=".5" cy=".5" r="0.375" fill="yellow" stroke="black" stroke-width="0.05"></circle></pattern></defs><defs><g id="SVG_0_expanderTemplate"><rect x="0" y="0" width="11.026299999999999" height="11.026299999999999" class=""></rect><line x1="2.00526" y1="5.5131499999999996" x2="9.02104" y2="5.5131499999999996" class="roofline_expander_horz_line"></line><line x1="5.5131499999999996" y1="2.00526" x2="5.5131499999999996" y2="9.02104" class="roofline_expander_vert_line"></line></g></defs><defs><line id="SVG_0_crossingTemplate" x1="-4" y1="-4" x2="4" y2="4"></line></defs><text x="2" y="2" style="font-size: 90%; writing-mode: tb; dominant-baseline: text-after-edge">GFLOPS</text><text x="1410" y="1020" style="font-size: 90%; text-anchor: end; dominant-baseline: text-after-edge"><tspan>FLOP/Byte</tspan><tspan style="font-size: 90%;"> (Arithmetic Intensity)</tspan></text>    </svg>  </g>  </svg>